<svg width="107" height="76" viewBox="0 0 107 76" fill="none" xmlns="http://www.w3.org/2000/svg">
<path d="M29.7222 66.5C24.9667 66.5 20.2111 63.175 17.8333 61.75C5.94444 55.1 2.37778 52.725 0 51.3V71.25C0 73.8729 2.662 76 5.94444 76H53.5C56.7825 76 59.4444 73.8729 59.4444 71.25V51.3C57.0667 52.725 53.5 55.1 41.6111 61.75C39.2333 63.175 34.4778 66.5 29.7222 66.5ZM53.5 38H5.94444C2.662 38 0 40.1271 0 42.75V45.125C4.75556 47.975 4.16111 47.975 21.4 57.95C23.1833 58.9 26.75 61.75 29.7222 61.75C32.6944 61.75 36.2611 58.9 38.0444 58.425C55.2833 48.45 54.6889 48.45 59.4444 45.6V42.75C59.4444 40.1271 56.7825 38 53.5 38ZM101.056 23.75H41.6111C38.3287 23.75 35.6667 25.8771 35.6667 28.5V33.25H53.5C59.6692 33.25 64.7554 37.0233 65.335 41.8327L65.3889 41.8V61.75H101.056C104.338 61.75 107 59.6229 107 57V28.5C107 25.8771 104.338 23.75 101.056 23.75ZM95.1111 42.75H83.2222V33.25H95.1111V42.75ZM29.7222 28.5C29.7222 23.2616 35.0555 19 41.6111 19H83.2222V4.75C83.2222 2.12711 80.5602 0 77.2778 0H17.8333C14.5509 0 11.8889 2.12711 11.8889 4.75V33.25H29.7222V28.5Z" fill="black"/>
</svg>
