<svg width="142" height="132" viewBox="0 0 142 132" fill="none" xmlns="http://www.w3.org/2000/svg">
<path d="M14.4419 57.7959C13.8708 55.8173 13.8707 53.734 14.4417 51.7554C15.0127 49.7768 16.1346 47.9725 17.6947 46.5241L50.2032 16.3402C51.7631 14.8917 53.7063 13.85 55.8373 13.3198C57.9683 12.7897 60.212 12.7897 62.343 13.32L92.7628 20.8882C93.0794 17.0187 94.5303 13.3035 96.9584 10.1448L60.32 1.03043C57.6901 0.376235 54.9213 0.376248 52.2915 1.03048C49.6617 1.68471 47.2637 2.9701 45.3385 4.75748L5.22071 42.0066C3.29568 43.7942 1.9113 46.0207 1.20669 48.4625C0.502081 50.9042 0.502066 53.4751 1.20665 55.9168L11.4005 91.2401C14.7329 88.8773 18.7003 87.4097 22.8698 86.9982L14.4419 57.7959Z" fill="#18CDCA"/>
<path d="M118.83 43.6733L127.539 73.8516C128.11 75.8305 128.11 77.9136 127.539 79.8919C126.968 81.8709 125.846 83.6749 124.286 85.1234L91.7771 115.308C90.2171 116.756 88.2741 117.798 86.1428 118.328C84.0121 118.858 81.7679 118.858 79.6372 118.328L48.1861 110.503C47.7429 114.374 46.1626 118.058 43.6174 121.152L81.6611 130.617C84.2906 131.272 87.0597 131.272 89.6892 130.617C92.3195 129.963 94.7171 128.678 96.6425 126.89L136.76 89.6409C138.686 87.8531 140.069 85.6269 140.774 83.1848C141.479 80.7433 141.479 78.1722 140.774 75.7307L130.196 39.085C126.934 41.557 123.001 43.1448 118.83 43.6733Z" fill="#18CDCA"/>
<path d="M12.3147 96.1116C9.73819 98.5035 7.98357 101.552 7.27271 104.87C6.56185 108.188 6.92668 111.627 8.32106 114.753C9.71538 117.878 12.0767 120.55 15.1062 122.43C18.1358 124.309 21.6976 125.312 25.3413 125.312C28.985 125.312 32.5468 124.309 35.5764 122.43C38.606 120.55 40.9673 117.878 42.3616 114.753C43.756 111.627 44.1208 108.188 43.4099 104.87C42.6991 101.552 40.9445 98.5035 38.368 96.1116C34.9104 92.9087 30.2256 91.1096 25.3413 91.1096C20.4571 91.1096 15.7723 92.9087 12.3147 96.1116Z" fill="#4F80E1"/>
<path d="M102.657 10.463C100.081 12.8551 98.3261 15.903 97.6158 19.2211C96.9049 22.5392 97.2695 25.9786 98.664 29.1042C100.058 32.2297 102.419 34.9013 105.449 36.7808C108.479 38.6604 112.04 39.6636 115.684 39.6636C119.328 39.6636 122.89 38.6604 125.92 36.7808C128.949 34.9013 131.31 32.2297 132.704 29.1042C134.099 25.9786 134.463 22.5392 133.752 19.2211C133.042 15.903 131.287 12.8551 128.711 10.463C125.254 7.25983 120.568 5.46094 115.684 5.46094C110.8 5.46094 106.115 7.25983 102.657 10.463Z" fill="#4F80E1"/>
<path d="M81.8039 111.166C81.064 111.166 80.3278 111.076 79.613 110.898L50.8234 103.735C49.8635 98.9752 47.3764 94.5958 43.6886 91.1719C40.0008 87.748 35.2843 85.4383 30.1581 84.5473L22.4442 57.8184C22.0618 56.4852 22.0629 55.0821 22.4475 53.7494C22.8321 52.4167 23.5867 51.2011 24.6358 50.2241L54.1853 22.7869C55.2364 21.8108 56.5456 21.109 57.9815 20.7517C59.4175 20.3945 60.9294 20.3946 62.3652 20.7519L90.3477 27.7138C91.4577 32.444 94.0803 36.7527 97.8724 40.0755C101.664 43.3983 106.449 45.5803 111.599 46.3355L119.533 73.8329C119.915 75.1666 119.914 76.5697 119.529 77.9021C119.144 79.2351 118.39 80.4505 117.34 81.4279L87.7907 108.864C87.0065 109.596 86.0728 110.177 85.0452 110.571C84.0177 110.967 82.9161 111.168 81.8039 111.166Z" fill="#4F80E1"/>
</svg>
