<svg width="161" height="208" viewBox="0 0 161 208" fill="none" xmlns="http://www.w3.org/2000/svg">
<path d="M37.368 28.456V38.32H16.776V48.976H32.184V58.552H16.776V79H4.464V28.456H37.368ZM50.031 34.648C47.871 34.648 46.095 34.024 44.703 32.776C43.359 31.48 42.687 29.896 42.687 28.024C42.687 26.104 43.359 24.52 44.703 23.272C46.095 21.976 47.871 21.328 50.031 21.328C52.143 21.328 53.871 21.976 55.215 23.272C56.607 24.52 57.303 26.104 57.303 28.024C57.303 29.896 56.607 31.48 55.215 32.776C53.871 34.024 52.143 34.648 50.031 34.648ZM56.151 38.824V79H43.839V38.824H56.151ZM89.5534 38.392C94.2574 38.392 98.0014 39.928 100.785 43C103.617 46.024 105.033 50.2 105.033 55.528V79H92.7934V57.184C92.7934 54.496 92.0974 52.408 90.7054 50.92C89.3134 49.432 87.4414 48.688 85.0894 48.688C82.7374 48.688 80.8654 49.432 79.4734 50.92C78.0814 52.408 77.3854 54.496 77.3854 57.184V79H65.0734V38.824H77.3854V44.152C78.6334 42.376 80.3134 40.984 82.4254 39.976C84.5374 38.92 86.9134 38.392 89.5534 38.392ZM111.141 58.84C111.141 54.712 111.909 51.088 113.445 47.968C115.029 44.848 117.165 42.448 119.853 40.768C122.541 39.088 125.541 38.248 128.853 38.248C131.493 38.248 133.893 38.8 136.053 39.904C138.261 41.008 139.989 42.496 141.237 44.368V25.72H153.549V79H141.237V73.24C140.085 75.16 138.429 76.696 136.269 77.848C134.157 79 131.685 79.576 128.853 79.576C125.541 79.576 122.541 78.736 119.853 77.056C117.165 75.328 115.029 72.904 113.445 69.784C111.909 66.616 111.141 62.968 111.141 58.84ZM141.237 58.912C141.237 55.84 140.373 53.416 138.645 51.64C136.965 49.864 134.901 48.976 132.453 48.976C130.005 48.976 127.917 49.864 126.189 51.64C124.509 53.368 123.669 55.768 123.669 58.84C123.669 61.912 124.509 64.36 126.189 66.184C127.917 67.96 130.005 68.848 132.453 68.848C134.901 68.848 136.965 67.96 138.645 66.184C140.373 64.408 141.237 61.984 141.237 58.912Z" fill="black"/>
<path d="M55.091 77.9191L49.1399 80.2612L53.7643 94.0015L59.7154 91.6593L55.091 77.9191Z" fill="black"/>
<path d="M55.5482 70.9999L44.1904 75.47L46.8943 83.5038L58.252 79.0338L55.5482 70.9999Z" fill="black"/>
<path d="M77 190.173C104.614 190.173 127 168.235 127 141.173C127 114.111 104.614 92.1726 77 92.1726C49.3858 92.1726 27 114.111 27 141.173C27 168.235 49.3858 190.173 77 190.173Z" stroke="black" stroke-width="7" stroke-miterlimit="10"/>
<path d="M65.904 120.917V152.021C65.904 155.429 66.792 158.045 68.568 159.869C70.344 161.645 72.84 162.533 76.056 162.533C79.32 162.533 81.84 161.645 83.616 159.869C85.392 158.045 86.28 155.429 86.28 152.021V120.917H96.432V151.949C96.432 156.221 95.496 159.845 93.624 162.821C91.8 165.749 89.328 167.957 86.208 169.445C83.136 170.933 79.704 171.677 75.912 171.677C72.168 171.677 68.76 170.933 65.688 169.445C62.664 167.957 60.264 165.749 58.488 162.821C56.712 159.845 55.824 156.221 55.824 151.949V120.917H65.904Z" fill="#4F80E1"/>
<path d="M36.9536 140.015C36.9536 119.38 52.393 102.684 71.4749 102.684" stroke="black" stroke-width="2" stroke-miterlimit="10"/>
<path d="M44.1005 163.484C41.4514 159.963 39.6715 155.741 38.6367 151.354" stroke="black" stroke-width="2" stroke-miterlimit="10"/>
</svg>
