<svg width="60" height="65" viewBox="0 0 60 65" fill="none" xmlns="http://www.w3.org/2000/svg">
<path d="M30 32.067C39.4688 32.067 47.1429 24.8895 47.1429 16.0335C47.1429 7.1775 39.4688 0 30 0C20.5312 0 12.8571 7.1775 12.8571 16.0335C12.8571 24.8895 20.5312 32.067 30 32.067ZM42 36.0754H39.7634C36.7902 37.3531 33.4821 38.0796 30 38.0796C26.5179 38.0796 23.2232 37.3531 20.2366 36.0754H18C8.0625 36.0754 0 43.6162 0 52.9106V58.1215C0 61.4409 2.87946 64.1341 6.42857 64.1341H53.5714C57.1205 64.1341 60 61.4409 60 58.1215V52.9106C60 43.6162 51.9375 36.0754 42 36.0754Z" fill="black"/>
</svg>
