<svg width="63" height="63" viewBox="0 0 63 63" fill="none" xmlns="http://www.w3.org/2000/svg">
<path d="M53.7738 9.22606C47.8243 3.27662 39.9139 0 31.5 0C23.0859 0 15.1755 3.27662 9.22606 9.22606C3.27649 15.1756 0 23.0861 0 31.5C0 39.9139 3.27649 47.8243 9.22606 53.7738C15.1756 59.7234 23.0859 63 31.5 63C39.9139 63 47.8243 59.7234 53.7738 53.7738C59.7234 47.8243 63 39.9139 63 31.5C63 23.0861 59.7234 15.1757 53.7738 9.22606ZM31.5 59.3086C16.1663 59.3086 3.69141 46.8337 3.69141 31.5C3.69141 16.1663 16.1663 3.69141 31.5 3.69141C46.8337 3.69141 59.3086 16.1663 59.3086 31.5C59.3086 46.8337 46.8337 59.3086 31.5 59.3086Z" fill="#4F80E1"/>
<path d="M46.5492 21.3928C45.8286 20.6723 44.6599 20.6723 43.9392 21.3929L27.6405 37.6916L19.0608 29.1119C18.3401 28.3912 17.1714 28.3912 16.4506 29.1119C15.7298 29.8326 15.7298 31.0013 16.4506 31.7221L26.3354 41.6068C26.6958 41.9672 27.1681 42.1474 27.6404 42.1474C28.1126 42.1474 28.5851 41.9671 28.9454 41.6068L46.5492 24.003C47.2701 23.2823 47.2701 22.1136 46.5492 21.3928Z" fill="#4F80E1"/>
</svg>
