<svg width="51" height="52" viewBox="0 0 51 52" fill="none" xmlns="http://www.w3.org/2000/svg">
<path d="M50.3133 16.4761L38.6268 12.6556C38.5616 10.8477 38.1355 9.10813 37.3555 7.47809C37.1178 6.98168 36.5231 6.77203 36.0266 7.00938C35.5303 7.24693 35.3203 7.84189 35.5579 8.3383C36.2785 9.84428 36.6439 11.4616 36.6439 13.1451C36.6439 14.9994 36.1831 16.8175 35.3097 18.436C35.1219 18.4121 34.9311 18.399 34.7375 18.399C33.2257 18.399 31.8241 19.1745 31.0112 20.4191C30.0604 20.5236 29.2077 21.0131 28.6395 21.7725C27.2831 21.9519 26.2329 23.1159 26.2329 24.5206C26.2329 25.918 27.2727 27.0768 28.619 27.2652L25.4922 31.2711L23.9866 29.3413C23.9809 29.3338 23.975 29.3265 23.9693 29.319L16.8789 20.2309C16.8675 20.2152 16.8557 20.1997 16.8434 20.1846C15.2292 18.2041 14.3402 15.704 14.3402 13.145C14.3402 11.1034 14.8955 9.116 15.9451 7.38114H18.5656C19.1158 7.38114 19.562 6.93505 19.562 6.38473C19.562 5.56189 19.3151 4.79584 18.8924 4.15495C20.8126 2.73914 23.0834 1.99313 25.4921 1.99313C27.4274 1.99313 29.3335 2.49622 31.0038 3.44809C31.4818 3.72021 32.0903 3.55371 32.3629 3.07553C32.6353 2.59745 32.4686 1.98894 31.9904 1.71652C30.0198 0.593963 27.7727 0.000498207 25.4922 0.000498207C22.5621 0.000498207 19.6947 0.990636 17.3938 2.79166C16.9081 2.53358 16.3646 2.37007 15.7878 2.32733C14.9696 0.91152 13.4278 0 11.7571 0C10.0864 0 8.54466 0.91152 7.7265 2.32733C5.61908 2.48336 3.95228 4.24363 3.95228 6.38493C3.95228 6.93525 4.39847 7.38134 4.94869 7.38134H13.6766C12.8041 9.16772 12.3474 11.1345 12.3474 13.1452C12.3474 13.6932 12.3823 14.2389 12.4504 14.7791L1.3061 11.1356C1.00259 11.0365 0.66989 11.0887 0.411519 11.276C0.15295 11.4635 0 11.7635 0 12.0827V44.6795C0 45.1105 0.277103 45.4927 0.686829 45.6266L4.22201 46.7825C4.32484 46.8162 4.42916 46.8321 4.53179 46.8321C4.95109 46.832 5.34128 46.5652 5.47869 46.145C5.64967 45.622 5.3644 45.0593 4.84128 44.8883L1.99293 43.957V32.0478H8.82395C9.93834 32.0478 10.8449 32.9544 10.8449 34.0687C10.8449 34.8972 10.3484 35.633 9.57983 35.943C8.83561 36.2431 8.24234 36.8442 7.95209 37.5924C7.66183 38.3406 7.69432 39.1846 8.04007 39.9051C8.04047 39.9061 8.04475 39.9151 8.04525 39.916C8.74065 41.366 10.4878 41.9827 11.9393 41.2913C14.1958 40.2163 16.8898 40.409 18.9703 41.7938L25.6626 46.2485L17.332 48.972L13.08 47.5819C12.5569 47.4106 11.9943 47.6963 11.8234 48.2193C11.6524 48.7423 11.9377 49.305 12.4608 49.476L17.0224 50.9673C17.2236 51.0331 17.4403 51.0331 17.6416 50.9673L33.6678 45.7279L49.6938 50.9673C49.795 51.0004 49.8995 51.0166 50.0033 51.0166C50.2108 51.0166 50.4161 50.9519 50.5883 50.8269C50.8469 50.6395 50.9998 50.3395 50.9998 50.0202V31.0433C50.9999 31.0405 51 31.0377 51 31.0349V17.4232C51.0001 16.9922 50.723 16.61 50.3133 16.4761ZM28.2258 24.5208C28.2258 24.091 28.5754 23.7415 29.005 23.7415C29.0321 23.7415 29.0614 23.7432 29.0919 23.7465C29.5055 23.7914 29.906 23.5734 30.0919 23.1996C30.3399 22.7009 30.8392 22.3911 31.395 22.3911C31.4314 22.3911 31.472 22.393 31.5189 22.397C31.9357 22.4325 32.3317 22.2019 32.5072 21.821C32.9071 20.9529 33.7826 20.392 34.7376 20.392C35.8804 20.392 36.8623 21.1671 37.1254 22.277C37.2286 22.7125 37.6095 23.0258 38.0568 23.0429C38.6649 23.0662 39.1413 23.5617 39.1413 24.1707C39.1413 24.7935 38.6347 25.3 38.012 25.3H29.0051C28.5754 25.3001 28.2258 24.9504 28.2258 24.5208ZM24.7065 33.5038C24.8953 33.7458 25.1851 33.8873 25.4921 33.8873C25.799 33.8873 26.0888 33.7459 26.2777 33.504L28.1611 31.091C29.3505 31.5236 30.1351 32.2313 30.1351 32.8909C30.1351 33.9479 28.1495 35.1301 25.4922 35.1301C22.8348 35.1301 20.8493 33.948 20.8493 32.8909C20.8493 32.2209 21.6358 31.5227 22.824 31.0908L24.7065 33.5038ZM6.20149 5.38841C6.55641 4.74553 7.24374 4.3089 8.0315 4.3089C8.09996 4.3089 8.17349 4.31278 8.25012 4.32046C8.69701 4.36509 9.11819 4.10523 9.27911 3.68624C9.66821 2.67338 10.664 1.99283 11.7571 1.99283C12.8503 1.99283 13.846 2.67338 14.235 3.68624C14.3958 4.10533 14.817 4.36509 15.264 4.32055C15.3407 4.31288 15.4142 4.309 15.4826 4.309C16.2705 4.309 16.9578 4.74572 17.3128 5.38851H6.20149V5.38841ZM1.99283 23.5264V13.4568L8.04944 15.4369L8.64021 20.2785C8.76795 21.3253 8.40605 22.3458 7.64738 23.0783C6.88871 23.8108 5.85623 24.1365 4.81448 23.972L1.99283 23.5264ZM49.0074 48.6459L39.2425 45.4536V41.0045C39.2425 40.3715 39.7575 39.8566 40.3904 39.8566C41.5677 39.8566 42.636 39.2073 43.1782 38.1622C43.7205 37.1171 43.6361 35.8698 42.958 34.9073L42.422 34.1463C42.065 33.6396 41.9256 32.9994 42.0392 32.39C42.161 31.7375 42.5398 31.1876 43.106 30.8412C43.6723 30.4949 44.3344 30.4082 44.9709 30.597L49.0075 31.7948V48.6459H49.0074ZM49.0074 29.7165L45.5378 28.6869C44.3706 28.3406 43.1052 28.5062 42.0662 29.1415C41.0275 29.7769 40.3037 30.8278 40.0802 32.0247C39.8684 33.1592 40.1281 34.351 40.7926 35.2943L41.3287 36.0553C41.5802 36.4124 41.6103 36.8571 41.4092 37.2448C41.2081 37.6325 40.8271 37.8641 40.3903 37.8641C38.6585 37.8641 37.2496 39.273 37.2496 41.0048V44.8024L33.9774 43.7327C33.7762 43.6668 33.5594 43.6668 33.3582 43.7326L28.0743 45.46L20.0745 40.135C17.4136 38.3637 13.9679 38.1173 11.0821 39.4923C10.6201 39.7121 10.0635 39.5161 9.84328 39.0573C9.84279 39.0563 9.8386 39.0472 9.8381 39.0463C9.7266 38.814 9.71654 38.5537 9.8098 38.3135C9.90307 38.0732 10.0859 37.8878 10.3251 37.7914C11.8514 37.1757 12.8376 35.7146 12.8376 34.069C12.8376 31.8558 11.0371 30.0553 8.82385 30.0553H1.99293V25.544L4.50389 25.9405C4.78728 25.9852 5.07026 26.0073 5.35075 26.0073C6.71793 26.0073 8.02552 25.4834 9.0317 24.512C10.2443 23.3412 10.8228 21.7103 10.6186 20.0371L10.1406 16.1205L12.9384 17.0352C13.4301 18.6211 14.2195 20.1118 15.2741 21.4138C15.2776 21.4182 15.281 21.4228 15.2845 21.4273L21.5501 29.4581C19.859 30.2308 18.8565 31.4749 18.8565 32.8909C18.8565 35.2639 21.7712 37.1229 25.4921 37.1229C29.213 37.1229 32.1277 35.264 32.1277 32.8909C32.1277 31.502 31.1159 30.2397 29.433 29.4614L31.1258 27.2927H38.012C39.7335 27.2927 41.1341 25.892 41.1341 24.1706C41.1341 22.7364 40.1786 21.5301 38.8561 21.1635C38.5142 20.3204 37.9293 19.6199 37.1954 19.1348C37.9011 17.7566 38.3548 16.2626 38.5403 14.7237L49.0074 18.1457V29.7165Z" fill="black"/>
</svg>
